<svg width="153" height="42" viewBox="0 0 153 42" fill="none" xmlns="http://www.w3.org/2000/svg">
<path d="M43.5987 21.2194H48.2364C48.328 21.9981 48.683 22.7081 49.3014 23.3494C49.9426 23.9677 50.7786 24.4601 51.8092 24.8266C52.8398 25.1701 53.9963 25.3419 55.2789 25.3419C56.4469 25.3419 57.4088 25.2159 58.1646 24.964C58.9203 24.712 59.4814 24.3571 59.8479 23.899C60.2143 23.441 60.3975 22.8913 60.3975 22.25C60.3975 21.6317 60.1685 21.1622 59.7105 20.8415C59.2524 20.498 58.531 20.2232 57.5462 20.0171C56.5614 19.788 55.2674 19.559 53.6643 19.33C52.4046 19.1468 51.2137 18.8948 50.0915 18.5742C48.9693 18.2307 47.973 17.7955 47.1027 17.2688C46.2554 16.742 45.5797 16.1008 45.0759 15.345C44.5949 14.5663 44.3545 13.6502 44.3545 12.5967C44.3545 11.2913 44.7209 10.1462 45.4538 9.16136C46.2095 8.17656 47.3203 7.40933 48.7861 6.85968C50.2518 6.31002 52.0496 6.0352 54.1796 6.0352C57.3859 6.0352 59.8479 6.72226 61.5656 8.0964C63.3061 9.44764 64.1535 11.3142 64.1077 13.696H59.6418C59.5502 12.3448 58.9776 11.3714 57.9241 10.776C56.8935 10.1805 55.588 9.88278 54.0078 9.88278C52.542 9.88278 51.3282 10.1004 50.3663 10.5355C49.4273 10.9706 48.9578 11.715 48.9578 12.7685C48.9578 13.1807 49.0723 13.5472 49.3014 13.8678C49.5304 14.1655 49.9197 14.4289 50.4694 14.6579C51.019 14.8869 51.7634 15.1045 52.7024 15.3106C53.6414 15.5168 54.8094 15.7229 56.2064 15.929C57.5118 16.1122 58.6913 16.3641 59.7448 16.6848C60.8212 16.9825 61.7373 17.3833 62.4931 17.8871C63.2718 18.3681 63.8672 18.9865 64.2795 19.7422C64.6917 20.498 64.8978 21.4256 64.8978 22.5249C64.8978 23.8761 64.5429 25.0556 63.8329 26.0633C63.1458 27.0481 62.0694 27.8153 60.6037 28.365C59.1608 28.9146 57.2828 29.1894 54.9697 29.1894C53.3207 29.1894 51.8664 29.0177 50.6068 28.6741C49.3472 28.3077 48.2593 27.8268 47.3432 27.2313C46.4271 26.6358 45.6828 25.9831 45.1102 25.2731C44.5377 24.5632 44.1254 23.8532 43.8735 23.1432C43.6445 22.4333 43.5529 21.792 43.5987 21.2194ZM65.1424 11.6348H78.4028V15.1045H65.1424V11.6348ZM69.5396 6.96274H74.0056V28.7085H69.5396V6.96274ZM87.3189 29.0864C85.6241 29.0864 84.0782 28.7199 82.6812 27.9871C81.307 27.2313 80.2077 26.1892 79.3832 24.8609C78.5817 23.5097 78.1809 21.9523 78.1809 20.1888C78.1809 18.3795 78.5931 16.8107 79.4176 15.4824C80.2421 14.1541 81.3528 13.1235 82.7499 12.3906C84.1698 11.6348 85.773 11.2569 87.5594 11.2569C89.529 11.2569 91.1092 11.6577 92.3002 12.4593C93.514 13.238 94.3957 14.3029 94.9454 15.6542C95.495 17.0054 95.7699 18.517 95.7699 20.1888C95.7699 21.1965 95.6095 22.2271 95.2889 23.2806C94.9683 24.3112 94.4759 25.2731 93.8117 26.1663C93.1475 27.0366 92.2772 27.7466 91.2008 28.2963C90.1244 28.823 88.8304 29.0864 87.3189 29.0864ZM88.7617 25.651C90.113 25.651 91.281 25.422 92.2658 24.964C93.2506 24.5059 94.0064 23.8647 94.5331 23.0402C95.0599 22.2157 95.3233 21.2652 95.3233 20.1888C95.3233 19.0208 95.0484 18.036 94.4988 17.2344C93.972 16.4099 93.2162 15.7916 92.2314 15.3793C91.2695 14.9442 90.113 14.7266 88.7617 14.7266C86.8608 14.7266 85.3836 15.2305 84.3301 16.2382C83.2766 17.223 82.7499 18.5399 82.7499 20.1888C82.7499 21.2881 83.0018 22.25 83.5057 23.0745C84.0095 23.8761 84.708 24.5059 85.6012 24.964C86.5173 25.422 87.5708 25.651 88.7617 25.651ZM95.3233 11.6348H99.7892V28.7085H95.6324C95.6324 28.7085 95.5981 28.4909 95.5294 28.0558C95.4836 27.5977 95.4378 27.0252 95.392 26.3381C95.3462 25.651 95.3233 24.9754 95.3233 24.3112V11.6348ZM101.831 11.6348H106.297V28.7085H101.831V11.6348ZM112.859 15.3106C111.576 15.3106 110.465 15.5626 109.526 16.0664C108.587 16.5474 107.832 17.1428 107.259 17.8528C106.686 18.5628 106.286 19.2498 106.057 19.914L106.022 18.0246C106.045 17.7497 106.137 17.3489 106.297 16.8222C106.457 16.2725 106.698 15.6885 107.018 15.0702C107.339 14.4289 107.763 13.822 108.29 13.2494C108.816 12.654 109.458 12.173 110.213 11.8066C110.969 11.4401 111.851 11.2569 112.859 11.2569V15.3106ZM112.932 23.0402H117.055C117.307 23.8188 117.822 24.4601 118.601 24.964C119.402 25.4449 120.444 25.6854 121.727 25.6854C122.597 25.6854 123.273 25.6052 123.754 25.4449C124.235 25.2846 124.567 25.0556 124.75 24.7578C124.933 24.4372 125.025 24.0822 125.025 23.6929C125.025 23.2119 124.876 22.8455 124.578 22.5936C124.281 22.3187 123.822 22.1012 123.204 21.9409C122.586 21.7805 121.796 21.6317 120.834 21.4943C119.872 21.3339 118.944 21.1393 118.051 20.9103C117.158 20.6812 116.368 20.3835 115.681 20.0171C114.994 19.6277 114.444 19.1468 114.032 18.5742C113.642 17.9788 113.448 17.2573 113.448 16.4099C113.448 15.5855 113.642 14.8526 114.032 14.2113C114.444 13.5701 115.005 13.0319 115.715 12.5967C116.448 12.1616 117.295 11.8295 118.257 11.6005C119.242 11.3714 120.296 11.2569 121.418 11.2569C123.112 11.2569 124.521 11.5089 125.643 12.0127C126.765 12.4937 127.601 13.1807 128.151 14.0739C128.724 14.9442 129.01 15.9519 129.01 17.097H125.059C124.876 16.2496 124.51 15.6427 123.96 15.2763C123.41 14.8869 122.563 14.6923 121.418 14.6923C120.296 14.6923 119.448 14.864 118.876 15.2076C118.303 15.5511 118.017 16.0206 118.017 16.6161C118.017 17.097 118.188 17.4749 118.532 17.7497C118.898 18.0017 119.425 18.2078 120.112 18.3681C120.822 18.5284 121.704 18.7002 122.758 18.8834C123.651 19.0666 124.498 19.2727 125.3 19.5018C126.124 19.7308 126.857 20.0285 127.498 20.395C128.14 20.7385 128.643 21.208 129.01 21.8034C129.399 22.376 129.594 23.1089 129.594 24.0021C129.594 25.1014 129.273 26.0289 128.632 26.7847C128.014 27.5405 127.12 28.1245 125.952 28.5367C124.784 28.9261 123.387 29.1207 121.761 29.1207C120.318 29.1207 119.07 28.9719 118.017 28.6741C116.986 28.3535 116.127 27.9527 115.44 27.4718C114.753 26.9679 114.215 26.4412 113.826 25.8915C113.459 25.319 113.207 24.7807 113.07 24.2769C112.932 23.773 112.887 23.3608 112.932 23.0402Z" fill="white"/>
<path d="M46.6724 39.1944C46.0194 39.1944 45.4429 39.0902 44.9427 38.8818C44.4495 38.6734 44.0639 38.3712 43.7861 37.9752C43.5082 37.5723 43.3693 37.0791 43.3693 36.4956C43.3693 35.9121 43.5082 35.4188 43.7861 35.0159C44.0639 34.6061 44.4495 34.297 44.9427 34.0886C45.4429 33.8802 46.0194 33.776 46.6724 33.776C47.3254 33.776 47.895 33.8802 48.3813 34.0886C48.8745 34.297 49.2601 34.6061 49.5379 35.0159C49.8158 35.4188 49.9547 35.9121 49.9547 36.4956C49.9547 37.0791 49.8158 37.5723 49.5379 37.9752C49.2601 38.3712 48.8745 38.6734 48.3813 38.8818C47.895 39.0902 47.3254 39.1944 46.6724 39.1944ZM46.6724 38.1524C47.0336 38.1524 47.3567 38.0899 47.6415 37.9648C47.9332 37.8328 48.1625 37.6453 48.3292 37.4021C48.4959 37.152 48.5793 36.8499 48.5793 36.4956C48.5793 36.1413 48.4959 35.8391 48.3292 35.589C48.1625 35.332 47.9367 35.1375 47.6519 35.0055C47.3671 34.8735 47.0406 34.8075 46.6724 34.8075C46.3112 34.8075 45.9847 34.8735 45.6929 35.0055C45.4012 35.1375 45.1685 35.3285 44.9948 35.5786C44.8281 35.8287 44.7447 36.1344 44.7447 36.4956C44.7447 36.8499 44.8281 37.152 44.9948 37.4021C45.1615 37.6453 45.3908 37.8328 45.6825 37.9648C45.9743 38.0899 46.3042 38.1524 46.6724 38.1524ZM50.5202 33.9844H54.6882V35.0159H50.5202V33.9844ZM53.6879 31.8066H54.7611V32.9007H54.0109C53.8094 32.8937 53.6358 32.9146 53.4899 32.9632C53.344 33.0118 53.2329 33.1021 53.1565 33.2341C53.08 33.3591 53.0418 33.5398 53.0418 33.776V39.0693H51.6872V33.6092C51.6872 33.1924 51.7636 32.852 51.9165 32.5881C52.0693 32.3171 52.2951 32.1192 52.5938 31.9941C52.8925 31.8691 53.2572 31.8066 53.6879 31.8066ZM57.684 33.8906H61.7061V34.943H57.684V33.8906ZM59.0177 32.4734H60.3723V39.0693H59.0177V32.4734ZM65.5486 39.1944C64.8956 39.1944 64.319 39.0902 63.8188 38.8818C63.3256 38.6734 62.9401 38.3712 62.6622 37.9752C62.3844 37.5723 62.2454 37.0791 62.2454 36.4956C62.2454 35.9121 62.3844 35.4188 62.6622 35.0159C62.9401 34.6061 63.3256 34.297 63.8188 34.0886C64.319 33.8802 64.8956 33.776 65.5486 33.776C66.2016 33.776 66.7712 33.8802 67.2575 34.0886C67.7507 34.297 68.1362 34.6061 68.4141 35.0159C68.692 35.4188 68.8309 35.9121 68.8309 36.4956C68.8309 37.0791 68.692 37.5723 68.4141 37.9752C68.1362 38.3712 67.7507 38.6734 67.2575 38.8818C66.7712 39.0902 66.2016 39.1944 65.5486 39.1944ZM65.5486 38.1524C65.9098 38.1524 66.2328 38.0899 66.5176 37.9648C66.8094 37.8328 67.0386 37.6453 67.2054 37.4021C67.3721 37.152 67.4554 36.8499 67.4554 36.4956C67.4554 36.1413 67.3721 35.8391 67.2054 35.589C67.0386 35.332 66.8129 35.1375 66.5281 35.0055C66.2432 34.8735 65.9168 34.8075 65.5486 34.8075C65.1873 34.8075 64.8609 34.8735 64.5691 35.0055C64.2773 35.1375 64.0446 35.3285 63.8709 35.5786C63.7042 35.8287 63.6209 36.1344 63.6209 36.4956C63.6209 36.8499 63.7042 37.152 63.8709 37.4021C64.0377 37.6453 64.2669 37.8328 64.5587 37.9648C64.8504 38.0899 65.1804 38.1524 65.5486 38.1524ZM69.8323 33.8906H71.1869V39.0693H69.8323V33.8906ZM73.5939 33.776C73.9135 33.776 74.2087 33.8176 74.4796 33.901C74.7505 33.9844 74.9867 34.1129 75.1882 34.2865C75.3896 34.4602 75.5459 34.6825 75.6571 34.9534C75.7682 35.2174 75.8238 35.5335 75.8238 35.9016V39.0693H74.4692V36.1413C74.4692 35.7037 74.3615 35.3841 74.1462 35.1827C73.9378 34.9743 73.5939 34.8701 73.1146 34.8701C72.7534 34.8701 72.4269 34.9395 72.1351 35.0785C71.8433 35.2174 71.6072 35.3945 71.4265 35.6099C71.2459 35.8183 71.1417 36.0371 71.1139 36.2663L71.1035 35.7349C71.1383 35.4918 71.2181 35.2556 71.3432 35.0264C71.4682 34.7971 71.6349 34.5887 71.8433 34.4012C72.0587 34.2066 72.3122 34.0538 72.604 33.9427C72.8958 33.8315 73.2257 33.776 73.5939 33.776ZM78.1058 33.776C78.4253 33.776 78.7206 33.8176 78.9915 33.901C79.2624 33.9844 79.4986 34.1129 79.7001 34.2865C79.9015 34.4602 80.0578 34.6825 80.169 34.9534C80.2871 35.2174 80.3461 35.5335 80.3461 35.9016V39.0693H78.9915V36.1413C78.9915 35.7037 78.8838 35.3841 78.6685 35.1827C78.4531 34.9743 78.1058 34.8701 77.6265 34.8701C77.2652 34.8701 76.9387 34.9395 76.647 35.0785C76.3552 35.2174 76.119 35.3945 75.9384 35.6099C75.7578 35.8183 75.6571 36.0371 75.6362 36.2663L75.6154 35.7037C75.6501 35.4744 75.7335 35.2452 75.8655 35.0159C75.9975 34.7867 76.1711 34.5783 76.3865 34.3907C76.6018 34.2032 76.8519 34.0538 77.1367 33.9427C77.4285 33.8315 77.7515 33.776 78.1058 33.776ZM84.6283 39.1944C83.9753 39.1944 83.3987 39.0902 82.8985 38.8818C82.4053 38.6734 82.0198 38.3712 81.7419 37.9752C81.464 37.5723 81.3251 37.0791 81.3251 36.4956C81.3251 35.9121 81.464 35.4188 81.7419 35.0159C82.0198 34.6061 82.4053 34.297 82.8985 34.0886C83.3987 33.8802 83.9753 33.776 84.6283 33.776C85.2812 33.776 85.8509 33.8802 86.3371 34.0886C86.8304 34.297 87.2159 34.6061 87.4938 35.0159C87.7716 35.4188 87.9106 35.9121 87.9106 36.4956C87.9106 37.0791 87.7716 37.5723 87.4938 37.9752C87.2159 38.3712 86.8304 38.6734 86.3371 38.8818C85.8509 39.0902 85.2812 39.1944 84.6283 39.1944ZM84.6283 38.1524C84.9895 38.1524 85.3125 38.0899 85.5973 37.9648C85.8891 37.8328 86.1183 37.6453 86.285 37.4021C86.4518 37.152 86.5351 36.8499 86.5351 36.4956C86.5351 36.1413 86.4518 35.8391 86.285 35.589C86.1183 35.332 85.8925 35.1375 85.6077 35.0055C85.3229 34.8735 84.9964 34.8075 84.6283 34.8075C84.267 34.8075 83.9405 34.8735 83.6488 35.0055C83.357 35.1375 83.1243 35.3285 82.9506 35.5786C82.7839 35.8287 82.7005 36.1344 82.7005 36.4956C82.7005 36.8499 82.7839 37.152 82.9506 37.4021C83.1173 37.6453 83.3466 37.8328 83.6383 37.9648C83.9301 38.0899 84.2601 38.1524 84.6283 38.1524ZM88.9119 33.8906H90.2666V39.0693H88.9119V33.8906ZM92.2568 35.0055C91.8678 35.0055 91.5309 35.0819 91.246 35.2348C90.9612 35.3806 90.732 35.5613 90.5583 35.7766C90.3846 35.9919 90.2631 36.2003 90.1936 36.4018L90.1832 35.8287C90.1901 35.7453 90.2179 35.6238 90.2666 35.464C90.3152 35.2973 90.3881 35.1201 90.4854 34.9326C90.5826 34.7381 90.7111 34.554 90.8709 34.3803C91.0307 34.1997 91.2252 34.0538 91.4544 33.9427C91.6837 33.8315 91.9511 33.776 92.2568 33.776V35.0055ZM93.0942 33.8906H94.4488V39.0693H93.0942V33.8906ZM96.439 35.0055C96.05 35.0055 95.7131 35.0819 95.4283 35.2348C95.1435 35.3806 94.9142 35.5613 94.7406 35.7766C94.5669 35.9919 94.4453 36.2003 94.3759 36.4018L94.3655 35.8287C94.3724 35.7453 94.4002 35.6238 94.4488 35.464C94.4974 35.2973 94.5704 35.1201 94.6676 34.9326C94.7649 34.7381 94.8934 34.554 95.0532 34.3803C95.213 34.1997 95.4075 34.0538 95.6367 33.9427C95.8659 33.8315 96.1334 33.776 96.439 33.776V35.0055ZM100.33 39.1944C99.6766 39.1944 99.1 39.0902 98.5998 38.8818C98.1066 38.6734 97.7211 38.3712 97.4432 37.9752C97.1653 37.5723 97.0264 37.0791 97.0264 36.4956C97.0264 35.9121 97.1653 35.4188 97.4432 35.0159C97.7211 34.6061 98.1066 34.297 98.5998 34.0886C99.1 33.8802 99.6766 33.776 100.33 33.776C100.983 33.776 101.552 33.8802 102.038 34.0886C102.532 34.297 102.917 34.6061 103.195 35.0159C103.473 35.4188 103.612 35.9121 103.612 36.4956C103.612 37.0791 103.473 37.5723 103.195 37.9752C102.917 38.3712 102.532 38.6734 102.038 38.8818C101.552 39.0902 100.983 39.1944 100.33 39.1944ZM100.33 38.1524C100.691 38.1524 101.014 38.0899 101.299 37.9648C101.59 37.8328 101.82 37.6453 101.986 37.4021C102.153 37.152 102.236 36.8499 102.236 36.4956C102.236 36.1413 102.153 35.8391 101.986 35.589C101.82 35.332 101.594 35.1375 101.309 35.0055C101.024 34.8735 100.698 34.8075 100.33 34.8075C99.9683 34.8075 99.6418 34.8735 99.3501 35.0055C99.0583 35.1375 98.8256 35.3285 98.6519 35.5786C98.4852 35.8287 98.4018 36.1344 98.4018 36.4956C98.4018 36.8499 98.4852 37.152 98.6519 37.4021C98.8186 37.6453 99.0479 37.8328 99.3396 37.9648C99.6314 38.0899 99.9614 38.1524 100.33 38.1524ZM111.162 38.1315L110.735 38.1211L112.423 33.8906H113.913L111.631 39.0693H110.36L108.692 34.8909H109.151L107.432 39.0693H106.16L103.941 33.8906H105.431L107.056 38.1315H106.629L108.151 33.8906H109.703L111.162 38.1315Z" fill="white"/>
<path d="M28.3932 13.9375L25.4072 22.9547L24.6426 25.5644L23.5617 28.6346L20.6773 37.6848L28.3932 32.1449L36.1092 37.6848L33.2248 28.6346L40.8779 23.0082L31.3793 22.9547L28.3932 13.9375Z" fill="white"/>
<path d="M12.8923 4.93604L9.90618 13.9532L0.407558 14.0067L8.06068 19.6331L10.4543 21.4388L12.8923 23.1434L20.6082 28.6833L17.7238 19.6331L25.377 14.0067L15.8783 13.9532L12.8923 4.93604Z" fill="white"/>
</svg>
