<svg width="25" height="25" viewBox="0 0 25 25" fill="none" xmlns="http://www.w3.org/2000/svg">
<path opacity="0.4" d="M12.5 22.8613C18.0228 22.8613 22.5 18.3842 22.5 12.8613C22.5 7.33848 18.0228 2.86133 12.5 2.86133C6.97715 2.86133 2.5 7.33848 2.5 12.8613C2.5 18.3842 6.97715 22.8613 12.5 22.8613Z" fill="#D8E0EF"/>
<path d="M18.2397 19.1213C16.7297 20.5113 14.7098 21.3613 12.4998 21.3613C10.2898 21.3613 8.26977 20.5113 6.75977 19.1213C7.19977 17.7413 8.33979 16.4313 10.7898 16.4313H14.2097C16.6497 16.4313 17.7897 17.7513 18.2397 19.1213ZM15.5078 10.8613C15.5078 9.20433 14.1648 7.86133 12.5078 7.86133C10.8508 7.86133 9.50781 9.20433 9.50781 10.8613C9.50781 12.5183 10.8508 13.8613 12.5078 13.8613C14.1648 13.8613 15.5078 12.5183 15.5078 10.8613Z" fill="#D8E0EF"/>
</svg>
