<svg width="25" height="25" viewBox="0 0 25 25" fill="none" xmlns="http://www.w3.org/2000/svg">
<path opacity="0.4" d="M12.0688 22.8613C17.5917 22.8613 22.0688 18.3842 22.0688 12.8613C22.0688 7.33848 17.5917 2.86133 12.0688 2.86133C6.546 2.86133 2.06885 7.33848 2.06885 12.8613C2.06885 18.3842 6.546 22.8613 12.0688 22.8613Z" fill="#D8E0EF"/>
<path d="M17.8086 19.1213C16.2986 20.5113 14.2786 21.3613 12.0686 21.3613C9.8586 21.3613 7.83861 20.5113 6.32861 19.1213C6.76861 17.7413 7.90864 16.4313 10.3586 16.4313H13.7786C16.2186 16.4313 17.3586 17.7513 17.8086 19.1213ZM15.0767 10.8613C15.0767 9.20433 13.7337 7.86133 12.0767 7.86133C10.4197 7.86133 9.07666 9.20433 9.07666 10.8613C9.07666 12.5183 10.4197 13.8613 12.0767 13.8613C13.7337 13.8613 15.0767 12.5183 15.0767 10.8613Z" fill="#D8E0EF"/>
</svg>
