<svg width="24" height="25" viewBox="0 0 24 25" fill="none" xmlns="http://www.w3.org/2000/svg">
<path opacity="0.4" d="M12 22.5698C17.5228 22.5698 22 18.0927 22 12.5698C22 7.04698 17.5228 2.56982 12 2.56982C6.47715 2.56982 2 7.04698 2 12.5698C2 18.0927 6.47715 22.5698 12 22.5698Z" fill="#CFECF4"/>
<path d="M16 10.3198H11C10.586 10.3198 10.25 9.98382 10.25 9.56982C10.25 9.15582 10.586 8.81982 11 8.81982H16C16.414 8.81982 16.75 9.15582 16.75 9.56982C16.75 9.98382 16.414 10.3198 16 10.3198ZM16.75 12.5698C16.75 12.1558 16.414 11.8198 16 11.8198H8C7.586 11.8198 7.25 12.1558 7.25 12.5698C7.25 12.9838 7.586 13.3198 8 13.3198H16C16.414 13.3198 16.75 12.9838 16.75 12.5698ZM13.75 15.5698C13.75 15.1558 13.414 14.8198 13 14.8198H8C7.586 14.8198 7.25 15.1558 7.25 15.5698C7.25 15.9838 7.586 16.3198 8 16.3198H13C13.414 16.3198 13.75 15.9838 13.75 15.5698Z" fill="#CFECF4"/>
</svg>
