<svg width="40" height="40" viewBox="0 0 40 40" fill="none" xmlns="http://www.w3.org/2000/svg">
<rect opacity="0.15" x="0.108643" y="0.374512" width="38.9898" height="38.9898" rx="5" fill="#242D43"/>
<path d="M30 15.4297V24.3096C30 24.9416 29.2689 25.2917 28.7759 24.8967L26.6121 23.1597C26.5411 23.1027 26.5 23.0165 26.5 22.9255V16.8137C26.5 16.7227 26.5411 16.6366 26.6121 16.5796L28.7759 14.8425C29.2689 14.4475 30 14.7977 30 15.4297ZM25 23.8696V15.8696C25 13.8696 24 12.8696 22 12.8696H13C11 12.8696 10 13.8696 10 15.8696V23.8696C10 25.8696 11 26.8696 13 26.8696H22C24 26.8696 25 25.8696 25 23.8696Z" fill="#242D43"/>
</svg>
