<svg width="19" height="10" viewBox="0 0 19 10" fill="none" xmlns="http://www.w3.org/2000/svg">
<path d="M18.1509 5.15652C18.1129 5.24852 18.0581 5.33141 17.9891 5.40041L13.9891 9.40041C13.8431 9.54641 13.651 9.62039 13.459 9.62039C13.267 9.62039 13.075 9.54741 12.929 9.40041C12.636 9.10741 12.636 8.63238 12.929 8.33938L15.649 5.61941H1.45905C1.04505 5.61941 0.709045 5.28341 0.709045 4.86941C0.709045 4.45541 1.04505 4.11941 1.45905 4.11941H15.648L12.928 1.39944C12.635 1.10644 12.635 0.631402 12.928 0.338402C13.221 0.0454023 13.6961 0.0454023 13.9891 0.338402L17.9891 4.3384C18.0581 4.4074 18.1129 4.4903 18.1509 4.5823C18.2269 4.7663 18.2269 4.97252 18.1509 5.15652Z" fill="white"/>
</svg>
