<svg width="40" height="40" viewBox="0 0 40 40" fill="none" xmlns="http://www.w3.org/2000/svg">
<rect opacity="0.15" x="0.108643" y="0.374512" width="38.9898" height="38.9898" rx="5" fill="#242D43"/>
<path d="M23.8199 18.5996C23.6699 18.4996 23.66 18.2897 23.78 18.1597C24.54 17.2697 25.01 16.1296 25.01 14.8696C25.01 14.4996 24.97 14.1397 24.89 13.7897C24.89 13.7897 24.87 13.7097 24.87 13.6797C24.87 13.5197 24.996 13.3866 25.156 13.3766C25.166 13.3766 25.29 13.3696 25.34 13.3696C27.21 13.3696 28.67 15.1997 28.01 17.1597C27.72 18.0297 26.98 18.7096 26.1 18.9396C25.25 19.1596 24.4499 18.9996 23.8199 18.5996ZM26.67 20.0397C26.48 20.0397 26.36 20.1696 26.36 20.3396C26.36 20.4096 26.416 20.4996 26.47 20.5596C27.66 21.7896 28.22 23.5096 28.22 25.2196V26.1096C28.22 26.2496 28.34 26.3696 28.49 26.3696H30C30.28 26.3696 30.5 26.1496 30.5 25.8696V23.8796C30.5 22.1096 29.5 20.0397 26.67 20.0397ZM13.9 18.9396C14.75 19.1596 15.5501 18.9996 16.1801 18.5996C16.3301 18.4996 16.34 18.2897 16.22 18.1597C15.46 17.2697 14.99 16.1296 14.99 14.8696C14.99 14.4996 15.03 14.1397 15.11 13.7897C15.11 13.7897 15.13 13.7097 15.13 13.6797C15.13 13.5197 15.004 13.3866 14.844 13.3766C14.834 13.3766 14.71 13.3696 14.66 13.3696C12.79 13.3696 11.33 15.1997 11.99 17.1597C12.28 18.0297 13.02 18.7096 13.9 18.9396ZM13.64 20.3396C13.64 20.1696 13.52 20.0397 13.33 20.0397C10.5 20.0397 9.5 22.1096 9.5 23.8796V25.8696C9.5 26.1496 9.72 26.3696 10 26.3696H11.51C11.66 26.3696 11.78 26.2496 11.78 26.1096V25.2196C11.78 23.5096 12.34 21.7896 13.53 20.5596C13.584 20.4996 13.64 20.4096 13.64 20.3396ZM20.0081 18.3696C21.9381 18.3696 23.5081 16.7996 23.5081 14.8696C23.5081 12.9396 21.9381 11.3696 20.0081 11.3696C18.0781 11.3696 16.5081 12.9396 16.5081 14.8696C16.5081 16.7996 18.0781 18.3696 20.0081 18.3696ZM21.777 20.2587H18.222C14.572 20.2587 13.277 22.9306 13.277 25.2196V27.8696C13.277 28.1456 13.501 28.3696 13.777 28.3696H26.222C26.498 28.3696 26.722 28.1456 26.722 27.8696V25.2196C26.723 22.9306 25.428 20.2587 21.777 20.2587Z" fill="#242D43"/>
</svg>
