<svg width="21" height="21" viewBox="0 0 21 21" fill="none" xmlns="http://www.w3.org/2000/svg">
<path d="M18.6713 9.1949H18V9.16032H10.5V12.4937H15.2096C14.5225 14.4341 12.6763 15.827 10.5 15.827C7.73877 15.827 5.50002 13.5882 5.50002 10.827C5.50002 8.06574 7.73877 5.82699 10.5 5.82699C11.7746 5.82699 12.9342 6.30782 13.8171 7.09324L16.1742 4.73615C14.6859 3.34907 12.695 2.49365 10.5 2.49365C5.89794 2.49365 2.16669 6.2249 2.16669 10.827C2.16669 15.4291 5.89794 19.1603 10.5 19.1603C15.1021 19.1603 18.8334 15.4291 18.8334 10.827C18.8334 10.2682 18.7759 9.72282 18.6713 9.1949Z" fill="#FFC107"/>
<path d="M3.1275 6.94824L5.86542 8.95615C6.60625 7.12199 8.40042 5.82699 10.5 5.82699C11.7746 5.82699 12.9342 6.30782 13.8171 7.09324L16.1742 4.73615C14.6858 3.34907 12.695 2.49365 10.5 2.49365C7.29917 2.49365 4.52334 4.30074 3.1275 6.94824Z" fill="#FF3D00"/>
<path d="M10.5 19.1603C12.6525 19.1603 14.6083 18.3365 16.0871 16.9969L13.5079 14.8144C12.6431 15.4721 11.5864 15.8278 10.5 15.8269C8.33249 15.8269 6.49207 14.4449 5.79874 12.5161L3.08124 14.6099C4.4604 17.3086 7.26124 19.1603 10.5 19.1603Z" fill="#4CAF50"/>
<path d="M18.6713 9.19523H18V9.16064H10.5V12.494H15.2096C14.8809 13.4175 14.2889 14.2245 13.5067 14.8152L13.5079 14.8144L16.0871 16.9969C15.9046 17.1627 18.8333 14.994 18.8333 10.8273C18.8333 10.2686 18.7758 9.72314 18.6713 9.19523Z" fill="#1976D2"/>
</svg>
