<svg width="18" height="11" viewBox="0 0 18 11" fill="none" xmlns="http://www.w3.org/2000/svg">
<path d="M0.307556 5.61404C0.345556 5.70604 0.400421 5.78893 0.469421 5.85793L4.46942 9.85793C4.61542 10.0039 4.80745 10.0779 4.99945 10.0779C5.19145 10.0779 5.38348 10.0049 5.52948 9.85793C5.82248 9.56493 5.82248 9.0899 5.52948 8.7969L2.80951 6.07693H16.9995C17.4135 6.07693 17.7495 5.74093 17.7495 5.32693C17.7495 4.91293 17.4135 4.57693 16.9995 4.57693H2.81049L5.53046 1.85696C5.82346 1.56396 5.82346 1.08892 5.53046 0.795922C5.23746 0.502922 4.76242 0.502922 4.46942 0.795922L0.469421 4.79592C0.400421 4.86492 0.345556 4.94782 0.307556 5.03982C0.231556 5.22382 0.231556 5.43004 0.307556 5.61404Z" fill="#AE70FF"/>
</svg>
