<svg width="14" height="15" viewBox="0 0 14 15" fill="none" xmlns="http://www.w3.org/2000/svg">
<path d="M11.3249 13.4273H3.15881C2.91731 13.4273 2.72131 13.2313 2.72131 12.9898C2.72131 12.7483 2.91731 12.5523 3.15881 12.5523H11.3249C11.5664 12.5523 11.7624 12.7483 11.7624 12.9898C11.7624 13.2313 11.5664 13.4273 11.3249 13.4273ZM5.00793 7.15643V10.0731C5.00793 10.3951 5.26927 10.6564 5.59127 10.6564H9.09127C9.41327 10.6564 9.6746 10.3951 9.6746 10.0731V7.15643H11.0881C11.6107 7.15643 11.8645 6.51827 11.4847 6.15952L7.82434 2.7015C7.52567 2.41916 7.05774 2.41916 6.75907 2.7015L3.09871 6.15952C2.71896 6.51827 2.97267 7.15643 3.49534 7.15643H5.00793Z" fill="white"/>
</svg>
