<svg width="19" height="18" viewBox="0 0 19 18" fill="none" xmlns="http://www.w3.org/2000/svg">
<path d="M15.5 3.23975H13.5L12.842 1.26562C12.638 0.652625 12.0649 0.239746 11.4189 0.239746H7.58105C6.93505 0.239746 6.36196 0.652625 6.15796 1.26562L5.5 3.23975H3.5C1.5 3.23975 0.5 4.23975 0.5 6.23975V14.2397C0.5 16.2397 1.5 17.2397 3.5 17.2397H15.5C17.5 17.2397 18.5 16.2397 18.5 14.2397V6.23975C18.5 4.23975 17.5 3.23975 15.5 3.23975ZM9.5 13.2397C7.843 13.2397 6.5 11.8967 6.5 10.2397C6.5 8.58275 7.843 7.23975 9.5 7.23975C11.157 7.23975 12.5 8.58275 12.5 10.2397C12.5 11.8967 11.157 13.2397 9.5 13.2397ZM15 7.73975C14.448 7.73975 14 7.29175 14 6.73975C14 6.18775 14.448 5.73975 15 5.73975C15.552 5.73975 16 6.18775 16 6.73975C16 7.29175 15.552 7.73975 15 7.73975Z" fill="#AE70FF"/>
</svg>
